<svg id="Layer_1" data-name="Layer 1" xmlns="http://www.w3.org/2000/svg" viewBox="0 0 1200 1200"><defs><style>.cls-1{fill:#231f20;}.cls-2{fill:#ffdb6e;}</style></defs><path class="cls-1" d="M1200,600a598.19,598.19,0,0,1-47.15,233.55C1061.76,1048.9,848.53,1200,600,1200,268.63,1200,0,931.37,0,600A598.19,598.19,0,0,1,47.15,366.45C120.89,192.11,274.69,59.87,462.47,15.84q7.21-1.69,14.49-3.21a605.64,605.64,0,0,1,246.08,0q7.28,1.51,14.49,3.2a595.86,595.86,0,0,1,96,31.32C1048.9,138.24,1200,351.47,1200,600Z"/><rect class="cls-2" x="457.76" y="243.57" width="284.47" height="712.86" rx="142.24"/><path class="cls-2" d="M737.53,15.83A142.3,142.3,0,0,1,600,121.64,142.31,142.31,0,0,1,462.47,15.84q7.21-1.69,14.49-3.21a605.64,605.64,0,0,1,246.08,0Q730.32,14.15,737.53,15.83Z"/></svg>